<svg xmlns="http://www.w3.org/2000/svg" xmlns:xlink="http://www.w3.org/1999/xlink" id="svg" version="1.1"
     viewBox="27.12 145.5 347.46 108.9">
    <g id="svgg">
        <path id="path0"
              d="M57.843 147.165 C 54.332 149.306,52.835 151.870,52.259 156.727 C 51.634 162.013,50.703 161.621,48.064 154.962 C 44.910 147.003,44.231 146.518,38.814 148.360 C 32.371 150.550,32.266 150.776,31.773 163.600 C 31.408 173.092,31.058 175.410,29.474 178.800 C 27.622 182.764,27.603 183.101,27.362 216.596 L 27.120 250.392 29.123 252.396 L 31.127 254.400 63.075 254.400 C 93.342 254.400,95.122 254.320,96.911 252.870 L 98.800 251.341 98.800 217.470 L 98.800 183.600 96.600 178.337 C 94.582 173.510,94.400 172.212,94.400 162.661 C 94.400 150.864,94.400 150.864,87.776 148.392 C 82.253 146.330,80.911 147.214,78.133 154.743 C 75.562 161.714,74.209 162.186,73.570 156.337 C 72.581 147.297,64.938 142.839,57.843 147.165 M65.498 149.684 C 66.892 150.170,68.386 151.227,68.817 152.032 C 69.983 154.211,69.782 154.554,67.919 153.556 C 66.144 152.607,59.830 152.858,57.307 153.979 C 54.879 155.058,57.158 151.492,59.820 150.047 C 62.495 148.595,62.393 148.602,65.498 149.684 M44.689 155.671 C 46.942 161.558,46.894 161.868,43.483 163.495 C 40.061 165.127,39.916 165.013,37.699 158.970 C 35.556 153.129,35.558 153.095,38.200 152.130 C 42.277 150.641,42.893 150.977,44.689 155.671 M87.762 152.162 C 88.993 152.691,90.133 153.214,90.295 153.324 C 90.457 153.434,89.605 156.226,88.400 159.529 L 86.209 165.535 82.905 163.869 C 81.087 162.953,79.494 162.112,79.364 161.999 C 78.708 161.431,83.524 151.200,84.447 151.200 C 85.040 151.200,86.532 151.633,87.762 152.162 M67.022 157.245 C 70.053 159.369,69.029 160.001,62.600 159.975 L 56.400 159.949 58.645 157.975 C 61.211 155.717,64.439 155.436,67.022 157.245 M36.800 166.800 C 36.800 167.848,36.440 168.928,36.000 169.200 C 35.523 169.495,35.200 168.526,35.200 166.800 C 35.200 165.074,35.523 164.105,36.000 164.400 C 36.440 164.672,36.800 165.752,36.800 166.800 M91.057 168.123 C 90.844 169.564,90.644 169.669,89.892 168.732 C 89.246 167.926,89.223 167.024,89.814 165.600 C 90.756 163.330,91.532 164.905,91.057 168.123 M70.400 176.030 C 70.400 178.343,55.794 178.120,55.350 175.800 C 55.111 174.546,55.879 174.400,62.741 174.400 C 69.914 174.400,70.400 174.504,70.400 176.030 M213.600 212.800 L 213.600 232.800 218.299 232.800 L 222.999 232.800 223.350 223.628 C 223.733 213.626,224.746 211.200,228.544 211.200 C 231.279 211.200,232.000 213.882,232.000 224.052 L 232.000 232.800 236.800 232.800 L 241.600 232.800 241.600 221.560 C 241.600 213.078,241.302 209.745,240.386 207.974 C 237.812 202.996,230.057 201.573,225.661 205.271 L 223.200 207.342 223.200 200.071 L 223.200 192.800 218.400 192.800 L 213.600 192.800 213.600 212.800 M343.200 212.800 L 343.200 232.800 348.400 232.800 L 353.600 232.800 353.600 228.592 C 353.600 221.419,355.942 221.041,359.774 227.594 L 362.800 232.769 368.692 232.785 L 374.584 232.800 373.136 230.600 C 372.339 229.390,369.907 225.609,367.732 222.197 L 363.777 215.993 368.699 209.997 L 373.620 204.000 368.054 204.000 L 362.488 204.000 359.044 208.236 C 357.150 210.565,355.054 213.298,354.387 214.308 C 353.281 215.983,353.201 215.117,353.476 204.472 L 353.778 192.800 348.489 192.800 L 343.200 192.800 343.200 212.800 M117.600 214.000 L 117.600 232.957 128.200 232.678 C 142.799 232.295,146.400 230.009,146.400 221.126 C 146.400 217.535,143.877 213.600,141.575 213.600 C 141.081 213.600,141.739 212.538,143.038 211.239 C 151.487 202.790,144.936 195.761,128.200 195.322 L 117.600 195.043 117.600 214.000 M249.600 214.000 L 249.600 232.800 254.800 232.800 L 260.000 232.800 260.000 226.400 L 260.000 220.000 263.800 219.999 C 276.964 219.994,281.922 202.795,270.430 197.000 C 267.387 195.465,265.590 195.200,258.230 195.200 L 249.600 195.200 249.600 214.000 M135.134 204.676 C 136.395 207.032,134.111 209.600,130.755 209.600 C 128.074 209.600,128.000 209.514,128.000 206.400 C 128.000 202.693,133.377 201.394,135.134 204.676 M158.814 204.107 C 154.475 205.122,154.093 205.716,155.544 209.188 C 156.607 211.734,157.069 212.107,158.598 211.652 C 163.631 210.156,166.638 210.150,167.722 211.631 C 169.443 213.985,169.035 214.400,165.000 214.404 C 156.472 214.414,151.188 218.039,151.212 223.861 C 151.246 232.269,160.143 236.225,167.398 231.059 C 169.685 229.431,171.140 229.869,171.188 232.200 C 171.194 232.530,172.820 232.800,174.800 232.800 L 178.400 232.800 178.400 221.308 C 178.400 204.569,173.862 200.584,158.814 204.107 M189.851 204.756 C 181.995 208.322,183.471 216.589,192.728 220.878 C 202.274 225.301,198.593 227.581,187.000 224.425 C 184.833 223.836,184.800 223.882,184.800 227.485 C 184.800 231.682,185.514 232.293,191.422 233.150 C 207.900 235.541,214.609 221.609,200.294 214.723 C 191.206 210.352,193.425 208.199,203.638 211.479 C 205.361 212.032,207.897 207.375,206.821 205.634 C 205.236 203.069,194.761 202.526,189.851 204.756 M264.853 204.028 C 268.147 205.791,265.829 212.000,261.876 212.000 C 260.135 212.000,260.000 211.682,260.000 207.600 C 260.000 202.870,261.132 202.037,264.853 204.028 M287.062 204.462 L 283.324 205.612 284.662 208.815 C 285.910 211.801,286.162 211.978,288.400 211.436 C 293.568 210.186,297.179 210.650,297.456 212.600 C 297.687 214.228,297.381 214.400,294.256 214.404 C 285.347 214.416,280.800 217.625,280.800 223.902 C 280.800 232.780,290.610 236.591,297.296 230.310 L 299.135 228.582 300.096 230.691 C 300.919 232.498,301.554 232.800,304.528 232.800 L 308.000 232.800 307.997 221.800 C 307.992 204.513,302.276 199.779,287.062 204.462 M322.652 204.082 C 319.221 205.074,315.440 209.008,314.433 212.633 C 310.624 226.346,319.956 236.285,333.063 232.474 L 337.600 231.155 337.600 227.092 C 337.600 223.536,337.425 223.101,336.200 223.607 C 327.891 227.036,324.000 225.322,324.000 218.231 C 324.000 211.839,327.903 209.632,334.432 212.333 C 335.332 212.705,335.954 212.029,336.745 209.821 C 337.340 208.159,337.975 206.398,338.158 205.906 C 338.919 203.856,327.910 202.560,322.652 204.082 M80.000 220.416 L 80.000 235.232 63.000 235.016 L 46.000 234.800 45.782 220.200 L 45.564 205.600 62.782 205.600 L 80.000 205.600 80.000 220.416 M48.935 212.855 C 49.125 214.150,50.160 215.009,52.600 215.895 C 54.470 216.575,56.000 217.337,56.000 217.590 C 56.000 217.843,54.470 218.578,52.600 219.225 C 50.065 220.101,49.132 220.881,48.933 222.289 C 48.786 223.328,48.985 224.048,49.376 223.889 C 62.484 218.558,63.395 217.305,56.469 214.134 C 49.372 210.886,48.626 210.759,48.935 212.855 M133.948 217.580 C 138.402 219.274,136.177 224.800,131.040 224.800 L 128.000 224.800 128.000 220.800 C 128.000 216.415,129.189 215.771,133.948 217.580 M168.800 221.600 C 168.800 223.229,166.200 226.400,164.865 226.400 C 161.850 226.400,160.442 223.078,162.560 220.960 C 164.245 219.275,168.800 219.742,168.800 221.600 M298.043 222.200 C 297.093 226.140,292.833 227.852,291.266 224.924 C 289.989 222.537,292.289 220.000,295.732 220.000 C 298.427 220.000,298.546 220.113,298.043 222.200 M62.757 225.670 C 61.667 227.432,63.913 228.063,70.466 227.834 C 76.116 227.637,77.225 227.378,77.450 226.200 C 77.767 224.540,63.768 224.034,62.757 225.670 "
              stroke="none" fill="#2196F3" fill-rule="evenodd"/>
    </g>
</svg>