<?xml version="1.0" standalone="no"?>
<!DOCTYPE svg PUBLIC "-//W3C//DTD SVG 20010904//EN"
 "http://www.w3.org/TR/2001/REC-SVG-20010904/DTD/svg10.dtd">
<svg version="1.0" xmlns="http://www.w3.org/2000/svg"
 width="449.000000pt" height="149.000000pt" viewBox="0 0 449.000000 149.000000"
 preserveAspectRatio="xMidYMid meet">
<metadata>
Created by potrace 1.16, written by Peter Selinger 2001-2019
</metadata>
<g transform="translate(0.000000,149.000000) scale(0.100000,-0.100000)"
fill="#000000" stroke="none">
<path d="M82 522 c-2 -434 -2 -440 59 -461 43 -15 754 -15 797 0 61 21 62 33
60 466 l-2 388 -6 -403 -5 -404 -24 -19 c-22 -18 -44 -19 -421 -19 -377 0
-399 1 -421 19 l-24 19 -5 404 -5 403 -3 -393z"/>
<path d="M350 597 c0 -30 4 -36 38 -49 l37 -15 -37 -17 c-32 -14 -38 -21 -38
-46 0 -38 9 -38 98 5 60 28 72 38 72 58 0 23 -33 43 -157 94 -9 4 -13 -6 -13
-30z"/>
</g>
</svg>
